<svg width="18" height="19" viewBox="0 0 18 19" fill="none" xmlns="http://www.w3.org/2000/svg">
<path d="M12.541 4.4806C12.8279 4.77941 12.8182 5.25419 12.5194 5.54104L9.3944 8.54104C9.10418 8.81965 8.64582 8.81965 8.3556 8.54104L6.4806 6.74104C6.18179 6.45419 6.1721 5.97941 6.45896 5.6806C6.74582 5.38179 7.22059 5.3721 7.5194 5.65896L8.875 6.96034L11.4806 4.45896C11.7794 4.1721 12.2542 4.18179 12.541 4.4806Z" fill="#3E4554"/>
<path fill-rule="evenodd" clip-rule="evenodd" d="M0.75 5C0.75 2.37665 2.87665 0.25 5.5 0.25H15.5C16.4665 0.25 17.25 1.0335 17.25 2V17C17.25 17.9665 16.4665 18.75 15.5 18.75H4.5C2.42893 18.75 0.75 17.0711 0.75 15V5ZM2.25 11.9997C2.87675 11.529 3.6558 11.25 4.5 11.25H15.75V2C15.75 1.86193 15.6381 1.75 15.5 1.75H5.5C3.70507 1.75 2.25 3.20507 2.25 5V11.9997ZM2.25 15C2.25 16.2426 3.25736 17.25 4.5 17.25H15.5C15.6381 17.25 15.75 17.1381 15.75 17V12.75H4.5C3.25736 12.75 2.25 13.7574 2.25 15Z" fill="#3E4554"/>
</svg>
