<svg width="20" height="20" viewBox="0 0 20 20" fill="none" xmlns="http://www.w3.org/2000/svg">
<path fill-rule="evenodd" clip-rule="evenodd" d="M4.06662 1.87384C3.36393 1.79531 2.63594 1.79531 1.93325 1.87384C1.9202 1.8753 1.90729 1.88121 1.89668 1.89167C1.88631 1.90189 1.88227 1.91222 1.88124 1.92098C1.7974 2.63786 1.7974 3.36206 1.88124 4.07893C1.88227 4.0877 1.88631 4.09802 1.89668 4.10824C1.90729 4.1187 1.9202 4.12461 1.93325 4.12607C2.63594 4.2046 3.36393 4.2046 4.06662 4.12607C4.07967 4.12461 4.09258 4.1187 4.10319 4.10824C4.11356 4.09802 4.1176 4.0877 4.11863 4.07893C4.20247 3.36206 4.20247 2.63786 4.11863 1.92098C4.1176 1.91222 4.11356 1.90189 4.10319 1.89167C4.09258 1.88121 4.07967 1.8753 4.06662 1.87384ZM1.76664 0.383124C2.58006 0.292214 3.41981 0.292214 4.23323 0.383124C4.94555 0.462737 5.52384 1.02317 5.60847 1.74673C5.70586 2.57938 5.70586 3.42053 5.60847 4.25318C5.52384 4.97674 4.94555 5.53717 4.23323 5.61679C3.41981 5.7077 2.58006 5.7077 1.76664 5.61679C1.05432 5.53717 0.476025 4.97674 0.391398 4.25318C0.294013 3.42053 0.294013 2.57938 0.391398 1.74673C0.476025 1.02317 1.05432 0.462737 1.76664 0.383124Z" fill="#3E4554"/>
<path fill-rule="evenodd" clip-rule="evenodd" d="M11.0666 1.87384C10.3639 1.79531 9.63594 1.79531 8.93325 1.87384C8.9202 1.8753 8.90729 1.88121 8.89668 1.89167C8.88631 1.90189 8.88227 1.91222 8.88124 1.92098C8.7974 2.63786 8.7974 3.36206 8.88124 4.07893C8.88227 4.0877 8.88631 4.09802 8.89668 4.10824C8.90729 4.1187 8.9202 4.12461 8.93325 4.12607C9.63594 4.2046 10.3639 4.2046 11.0666 4.12607C11.0797 4.12461 11.0926 4.1187 11.1032 4.10824C11.1136 4.09802 11.1176 4.0877 11.1186 4.07893C11.2025 3.36206 11.2025 2.63786 11.1186 1.92098C11.1176 1.91222 11.1136 1.90189 11.1032 1.89167C11.0926 1.88121 11.0797 1.8753 11.0666 1.87384ZM8.76664 0.383124C9.58006 0.292214 10.4198 0.292214 11.2332 0.383124C11.9456 0.462737 12.5238 1.02317 12.6085 1.74673C12.7059 2.57938 12.7059 3.42053 12.6085 4.25318C12.5238 4.97674 11.9456 5.53717 11.2332 5.61679C10.4198 5.7077 9.58006 5.7077 8.76664 5.61679C8.05432 5.53717 7.47603 4.97674 7.3914 4.25318C7.29401 3.42053 7.29401 2.57938 7.3914 1.74673C7.47603 1.02317 8.05432 0.462737 8.76664 0.383124Z" fill="#3E4554"/>
<path fill-rule="evenodd" clip-rule="evenodd" d="M18.0666 1.87384C17.3639 1.79531 16.6359 1.79531 15.9333 1.87384C15.9202 1.8753 15.9073 1.88121 15.8967 1.89167C15.8863 1.90189 15.8823 1.91222 15.8812 1.92098C15.7974 2.63786 15.7974 3.36206 15.8812 4.07893C15.8823 4.0877 15.8863 4.09802 15.8967 4.10824C15.9073 4.1187 15.9202 4.12461 15.9333 4.12607C16.6359 4.2046 17.3639 4.2046 18.0666 4.12607C18.0797 4.12461 18.0926 4.1187 18.1032 4.10824C18.1136 4.09802 18.1176 4.0877 18.1186 4.07893C18.2025 3.36206 18.2025 2.63786 18.1186 1.92098C18.1176 1.91222 18.1136 1.90189 18.1032 1.89167C18.0926 1.88121 18.0797 1.8753 18.0666 1.87384ZM15.7666 0.383124C16.5801 0.292214 17.4198 0.292214 18.2332 0.383124C18.9456 0.462737 19.5238 1.02317 19.6085 1.74673C19.7059 2.57938 19.7059 3.42053 19.6085 4.25318C19.5238 4.97674 18.9456 5.53717 18.2332 5.61679C17.4198 5.7077 16.5801 5.7077 15.7666 5.61679C15.0543 5.53717 14.476 4.97674 14.3914 4.25318C14.294 3.42053 14.294 2.57938 14.3914 1.74673C14.476 1.02317 15.0543 0.462737 15.7666 0.383124Z" fill="#3E4554"/>
<path fill-rule="evenodd" clip-rule="evenodd" d="M4.06662 8.87384C3.36393 8.79531 2.63594 8.79531 1.93325 8.87384C1.9202 8.8753 1.90729 8.88121 1.89668 8.89167C1.88631 8.90189 1.88227 8.91222 1.88124 8.92098C1.7974 9.63785 1.7974 10.3621 1.88124 11.0789C1.88227 11.0877 1.88631 11.098 1.89668 11.1082C1.90729 11.1187 1.9202 11.1246 1.93325 11.1261C2.63594 11.2046 3.36393 11.2046 4.06662 11.1261C4.07967 11.1246 4.09258 11.1187 4.10319 11.1082C4.11356 11.098 4.1176 11.0877 4.11863 11.0789C4.20247 10.3621 4.20247 9.63785 4.11863 8.92098C4.1176 8.91222 4.11356 8.90189 4.10319 8.89167C4.09258 8.88121 4.07967 8.8753 4.06662 8.87384ZM1.76664 7.38312C2.58006 7.29221 3.41981 7.29221 4.23323 7.38312C4.94555 7.46274 5.52384 8.02317 5.60847 8.74673C5.70586 9.57938 5.70586 10.4205 5.60847 11.2532C5.52384 11.9767 4.94555 12.5372 4.23323 12.6168C3.41981 12.7077 2.58006 12.7077 1.76664 12.6168C1.05432 12.5372 0.476025 11.9767 0.391398 11.2532C0.294013 10.4205 0.294013 9.57938 0.391398 8.74673C0.476025 8.02317 1.05432 7.46274 1.76664 7.38312Z" fill="#3E4554"/>
<path fill-rule="evenodd" clip-rule="evenodd" d="M11.0666 8.87384C10.3639 8.79531 9.63594 8.79531 8.93325 8.87384C8.9202 8.8753 8.90729 8.88121 8.89668 8.89167C8.88631 8.90189 8.88227 8.91222 8.88124 8.92098C8.7974 9.63785 8.7974 10.3621 8.88124 11.0789C8.88227 11.0877 8.88631 11.098 8.89668 11.1082C8.90729 11.1187 8.9202 11.1246 8.93325 11.1261C9.63594 11.2046 10.3639 11.2046 11.0666 11.1261C11.0797 11.1246 11.0926 11.1187 11.1032 11.1082C11.1136 11.098 11.1176 11.0877 11.1186 11.0789C11.2025 10.3621 11.2025 9.63785 11.1186 8.92098C11.1176 8.91222 11.1136 8.90189 11.1032 8.89167C11.0926 8.88121 11.0797 8.8753 11.0666 8.87384ZM8.76664 7.38312C9.58006 7.29221 10.4198 7.29221 11.2332 7.38312C11.9456 7.46274 12.5238 8.02317 12.6085 8.74673C12.7059 9.57938 12.7059 10.4205 12.6085 11.2532C12.5238 11.9767 11.9456 12.5372 11.2332 12.6168C10.4198 12.7077 9.58006 12.7077 8.76664 12.6168C8.05432 12.5372 7.47603 11.9767 7.3914 11.2532C7.29401 10.4205 7.29401 9.57938 7.3914 8.74673C7.47603 8.02317 8.05432 7.46274 8.76664 7.38312Z" fill="#3E4554"/>
<path fill-rule="evenodd" clip-rule="evenodd" d="M18.0666 8.87384C17.3639 8.79531 16.6359 8.79531 15.9333 8.87384C15.9202 8.8753 15.9073 8.88121 15.8967 8.89167C15.8863 8.90189 15.8823 8.91222 15.8812 8.92098C15.7974 9.63785 15.7974 10.3621 15.8812 11.0789C15.8823 11.0877 15.8863 11.098 15.8967 11.1082C15.9073 11.1187 15.9202 11.1246 15.9333 11.1261C16.6359 11.2046 17.3639 11.2046 18.0666 11.1261C18.0797 11.1246 18.0926 11.1187 18.1032 11.1082C18.1136 11.098 18.1176 11.0877 18.1186 11.0789C18.2025 10.3621 18.2025 9.63785 18.1186 8.92098C18.1176 8.91222 18.1136 8.90189 18.1032 8.89167C18.0926 8.88121 18.0797 8.8753 18.0666 8.87384ZM15.7666 7.38312C16.5801 7.29221 17.4198 7.29221 18.2332 7.38312C18.9456 7.46274 19.5238 8.02317 19.6085 8.74673C19.7059 9.57938 19.7059 10.4205 19.6085 11.2532C19.5238 11.9767 18.9456 12.5372 18.2332 12.6168C17.4198 12.7077 16.5801 12.7077 15.7666 12.6168C15.0543 12.5372 14.476 11.9767 14.3914 11.2532C14.294 10.4205 14.294 9.57938 14.3914 8.74673C14.476 8.02317 15.0543 7.46274 15.7666 7.38312Z" fill="#3E4554"/>
<path fill-rule="evenodd" clip-rule="evenodd" d="M4.06662 15.8738C3.36393 15.7953 2.63594 15.7953 1.93325 15.8738C1.9202 15.8753 1.90729 15.8812 1.89668 15.8917C1.88631 15.9019 1.88227 15.9122 1.88124 15.921C1.7974 16.6379 1.7974 17.3621 1.88124 18.0789C1.88227 18.0877 1.88631 18.098 1.89668 18.1082C1.90729 18.1187 1.9202 18.1246 1.93325 18.1261C2.63594 18.2046 3.36393 18.2046 4.06662 18.1261C4.07967 18.1246 4.09258 18.1187 4.10319 18.1082C4.11356 18.098 4.1176 18.0877 4.11863 18.0789C4.20247 17.3621 4.20247 16.6379 4.11863 15.921C4.1176 15.9122 4.11356 15.9019 4.10319 15.8917C4.09258 15.8812 4.07967 15.8753 4.06662 15.8738ZM1.76664 14.3831C2.58006 14.2922 3.41981 14.2922 4.23323 14.3831C4.94555 14.4627 5.52384 15.0232 5.60847 15.7467C5.70586 16.5794 5.70586 17.4205 5.60847 18.2532C5.52384 18.9767 4.94555 19.5372 4.23323 19.6168C3.41981 19.7077 2.58006 19.7077 1.76664 19.6168C1.05432 19.5372 0.476025 18.9767 0.391398 18.2532C0.294013 17.4205 0.294013 16.5794 0.391398 15.7467C0.476025 15.0232 1.05432 14.4627 1.76664 14.3831Z" fill="#3E4554"/>
<path fill-rule="evenodd" clip-rule="evenodd" d="M11.0666 15.8738C10.3639 15.7953 9.63594 15.7953 8.93325 15.8738C8.9202 15.8753 8.90729 15.8812 8.89668 15.8917C8.88631 15.9019 8.88227 15.9122 8.88124 15.921C8.7974 16.6379 8.7974 17.3621 8.88124 18.0789C8.88227 18.0877 8.88631 18.098 8.89668 18.1082C8.90729 18.1187 8.9202 18.1246 8.93325 18.1261C9.63594 18.2046 10.3639 18.2046 11.0666 18.1261C11.0797 18.1246 11.0926 18.1187 11.1032 18.1082C11.1136 18.098 11.1176 18.0877 11.1186 18.0789C11.2025 17.3621 11.2025 16.6379 11.1186 15.921C11.1176 15.9122 11.1136 15.9019 11.1032 15.8917C11.0926 15.8812 11.0797 15.8753 11.0666 15.8738ZM8.76664 14.3831C9.58006 14.2922 10.4198 14.2922 11.2332 14.3831C11.9456 14.4627 12.5238 15.0232 12.6085 15.7467C12.7059 16.5794 12.7059 17.4205 12.6085 18.2532C12.5238 18.9767 11.9456 19.5372 11.2332 19.6168C10.4198 19.7077 9.58006 19.7077 8.76664 19.6168C8.05432 19.5372 7.47603 18.9767 7.3914 18.2532C7.29401 17.4205 7.29401 16.5794 7.3914 15.7467C7.47603 15.0232 8.05432 14.4627 8.76664 14.3831Z" fill="#3E4554"/>
<path fill-rule="evenodd" clip-rule="evenodd" d="M18.0666 15.8738C17.3639 15.7953 16.6359 15.7953 15.9333 15.8738C15.9202 15.8753 15.9073 15.8812 15.8967 15.8917C15.8863 15.9019 15.8823 15.9122 15.8812 15.921C15.7974 16.6379 15.7974 17.3621 15.8812 18.0789C15.8823 18.0877 15.8863 18.098 15.8967 18.1082C15.9073 18.1187 15.9202 18.1246 15.9333 18.1261C16.6359 18.2046 17.3639 18.2046 18.0666 18.1261C18.0797 18.1246 18.0926 18.1187 18.1032 18.1082C18.1136 18.098 18.1176 18.0877 18.1186 18.0789C18.2025 17.3621 18.2025 16.6379 18.1186 15.921C18.1176 15.9122 18.1136 15.9019 18.1032 15.8917C18.0926 15.8812 18.0797 15.8753 18.0666 15.8738ZM15.7666 14.3831C16.5801 14.2922 17.4198 14.2922 18.2332 14.3831C18.9456 14.4627 19.5238 15.0232 19.6085 15.7467C19.7059 16.5794 19.7059 17.4205 19.6085 18.2532C19.5238 18.9767 18.9456 19.5372 18.2332 19.6168C17.4198 19.7077 16.5801 19.7077 15.7666 19.6168C15.0543 19.5372 14.476 18.9767 14.3914 18.2532C14.294 17.4205 14.294 16.5794 14.3914 15.7467C14.476 15.0232 15.0543 14.4627 15.7666 14.3831Z" fill="#3E4554"/>
</svg>
