<svg width="260" height="260" viewBox="0 0 260 260" fill="none" xmlns="http://www.w3.org/2000/svg">
<path d="M70.0312 35.2832H189.465C208.795 35.2832 224.465 50.9532 224.465 70.2832V72L259.465 72V70.2832C259.465 31.6233 228.125 0.283203 189.465 0.283203H70.0312C31.3713 0.283203 0.03125 31.6232 0.03125 70.2832V189.717C0.03125 228.377 31.3713 259.717 70.0312 259.717H189.465C228.125 259.717 259.465 228.377 259.465 189.717V188.261H224.465V189.717C224.465 209.047 208.795 224.717 189.465 224.717H70.0312C50.7013 224.717 35.0312 209.047 35.0312 189.717V70.2832C35.0312 50.9532 50.7013 35.2832 70.0312 35.2832Z" fill="#2F80ED"/>
<path d="M224.465 167.744H259.465V156.345H224.465V167.744Z" fill="#2F80ED"/>
<path d="M224.465 135.828H259.465V124.432L224.465 124.432V135.828Z" fill="#2F80ED"/>
<path d="M224.465 103.915H259.465V92.5166L224.465 92.5166V103.915Z" fill="#2F80ED"/>
</svg>
