<svg width="25" height="20" viewBox="0 0 25 20" fill="none" xmlns="http://www.w3.org/2000/svg">
<path d="M25 2.34604C24.0926 2.74409 23.1256 3.00793 22.1176 3.13604C23.1546 2.51685 23.9462 1.54383 24.3183 0.371027C23.3514 0.947516 22.2838 1.35472 21.1461 1.58196C20.2279 0.604368 18.9194 -0.00109863 17.4919 -0.00109863C14.7223 -0.00109863 12.4926 2.24691 12.4926 5.00277C12.4926 5.3993 12.5262 5.78057 12.6085 6.14355C8.44957 5.94071 4.76949 3.9474 2.29729 0.910914C1.86569 1.65974 1.61252 2.51685 1.61252 3.43954C1.61252 5.17206 2.50471 6.70784 3.8346 7.59697C3.03087 7.58172 2.24239 7.34838 1.57439 6.98083C1.57439 6.99608 1.57439 7.01591 1.57439 7.03573C1.57439 9.46675 3.30844 11.486 5.58237 11.9511C5.17517 12.0625 4.73136 12.1159 4.27078 12.1159C3.95051 12.1159 3.62719 12.0976 3.32369 12.0305C3.97186 14.0116 5.81114 15.468 7.99814 15.5153C6.29612 16.8467 4.13505 17.6489 1.79553 17.6489C1.38528 17.6489 0.991805 17.6306 0.598328 17.5803C2.8143 19.0093 5.44054 19.8253 8.27265 19.8253C17.4782 19.8253 22.511 12.1997 22.511 5.58994C22.511 5.36879 22.5034 5.15528 22.4927 4.94329C23.4856 4.23869 24.3198 3.35871 25 2.34604Z" fill="#ECF0F3"/>
</svg>
