<svg width="27" height="29" viewBox="0 0 27 29" fill="none" xmlns="http://www.w3.org/2000/svg">
<path d="M26.2176 16.7425C27.0706 9.48624 25.8078 4.90518 23.53 2.83317L23.5312 2.83196C19.8547 -0.706473 7.43867 -1.2302 3.04028 2.99088C1.06505 5.05567 0.369312 8.08604 0.293066 11.8376C0.216821 15.5903 0.12628 22.6202 6.60831 24.5273H6.61427L6.60831 27.4397C6.60831 27.4397 6.56424 28.6196 7.31001 28.8567C8.163 29.1361 8.54899 28.5883 11.2021 25.3857C15.6386 25.7746 19.0458 24.8837 19.433 24.7537C20.3289 24.4503 25.398 23.7724 26.2176 16.7425ZM11.6393 23.3366C11.6393 23.3366 8.83134 26.875 7.95809 27.7936C7.67217 28.0922 7.35885 28.0645 7.36362 27.4722C7.36362 27.0833 7.38506 22.6371 7.38506 22.6371C1.88945 21.0455 2.21349 15.0594 2.27306 11.9279C2.33263 8.79517 2.8997 6.22953 4.57233 4.50185C8.43105 0.84543 19.3162 1.66292 22.0897 4.29718C25.4802 7.33477 24.2734 15.9166 24.2805 16.2092C23.5836 22.0772 19.4759 22.4493 18.7206 22.7033C18.3977 22.8117 15.4015 23.5906 11.6393 23.3366Z" fill="#ECF0F3"/>
<path d="M13.193 5.18927C12.7344 5.18927 12.7344 5.91164 13.193 5.91766C16.7515 5.94535 19.6822 8.452 19.7144 13.0499C19.7144 13.5351 20.4173 13.5291 20.4113 13.0439H20.4101C20.372 8.08961 17.1721 5.21696 13.193 5.18927Z" fill="#ECF0F3"/>
<path d="M17.8735 12.2878C17.8627 12.767 18.5644 12.7898 18.5704 12.3047C18.6288 9.57287 16.9621 7.32267 13.8301 7.08549C13.3714 7.05178 13.3238 7.78018 13.7812 7.81389C16.4975 8.02217 17.9283 9.89553 17.8735 12.2878Z" fill="#ECF0F3"/>
<path d="M17.1231 15.3953C16.5345 15.051 15.9353 15.2653 15.6875 15.6036L15.1693 16.2814C14.906 16.6257 14.414 16.58 14.414 16.58C10.8233 15.6204 9.86309 11.8231 9.86309 11.8231C9.86309 11.8231 9.81901 11.3091 10.1478 11.0333L10.7959 10.4916C11.1199 10.2315 11.3249 9.60545 10.9949 8.99023C10.1133 7.38053 9.52118 6.82551 9.21977 6.39931C8.90288 5.99839 8.42635 5.90809 7.93075 6.17898H7.92003C6.88953 6.78818 5.76134 7.92833 6.12231 9.10219C6.73823 10.3399 7.86999 14.2852 11.4773 17.2662C13.1726 18.6761 15.8555 20.1208 16.9944 20.4543L17.0051 20.4712C18.1274 20.8492 19.2186 19.6645 19.8012 18.5918V18.5834C20.0597 18.0645 19.9739 17.5732 19.5963 17.2518C18.9267 16.592 17.9165 15.8636 17.1231 15.3953Z" fill="#ECF0F3"/>
<path d="M14.3212 9.77275C15.4661 9.84018 16.0212 10.4446 16.0808 11.6858C16.1022 12.171 16.7992 12.1373 16.7777 11.6521C16.7015 10.0316 15.8652 9.12864 14.3593 9.04436C13.9007 9.01667 13.8578 9.74506 14.3212 9.77275Z" fill="#ECF0F3"/>
</svg>
