<svg width="227" height="117" viewBox="0 0 227 117" fill="none" xmlns="http://www.w3.org/2000/svg">
<path d="M216.12 116.924C221.786 116.924 226.378 112.331 226.378 106.666C226.378 101 221.786 96.4074 216.12 96.4074L10.2583 96.4074C4.59279 96.4074 -2.47647e-07 101 0 106.666C2.47647e-07 112.331 4.59279 116.924 10.2583 116.924L216.12 116.924Z" fill="#3E4554"/>
<path d="M216.12 53.0948C221.786 53.0948 226.378 48.502 226.378 42.8365C226.378 37.171 221.786 32.5782 216.12 32.5782L10.2583 32.5782C4.59279 32.5782 -2.47647e-07 37.171 0 42.8365C2.47647e-07 48.502 4.59279 53.0948 10.2583 53.0948L216.12 53.0948Z" fill="#3E4554"/>
<path d="M216.12 85.0078C221.786 85.0078 226.378 80.415 226.378 74.7495C226.378 69.084 221.786 64.4912 216.12 64.4912L10.2583 64.4912C4.59279 64.4912 -2.47647e-07 69.084 0 74.7495C2.47647e-07 80.415 4.59279 85.0078 10.2583 85.0078L216.12 85.0078Z" fill="#3E4554"/>
<path d="M216.12 21.1797C221.786 21.1797 226.378 16.5869 226.378 10.9214C226.378 5.25588 221.786 0.663086 216.12 0.663086L10.2583 0.663095C4.59279 0.663095 -2.47647e-07 5.25589 0 10.9214C2.47647e-07 16.5869 4.59279 21.1797 10.2583 21.1797L216.12 21.1797Z" fill="#3E4554"/>
</svg>
